# xmcd
#
# Track frame offsets:
#	150
#	16487
#	34517
#	54890
#	75362
#	96330
#	112830
#	131257
#	151610
#	166772
#	186945
#	200112
#
# Disc length: 2977 seconds
#
# Revision: 1
# Processed by: cddbd v1.5.2PL0 Copyright (c) Steve Scherf et al.
# Submitted via: audiograbber 1.83.01
#
DISCID=830b9f0c
DTITLE=Amy Grant - Behind the Eyes
DYEAR=1997
DGENRE=Kristen Pop
TTITLE0=Nobody Home
TTITLE1=I will be your Friend
TTITLE2=Like I Love You
TTITLE3=Takes a Little Time
TTITLE4=Cry a River
TTITLE5=Turn This World Around
TTITLE6=Curious Thing
TTITLE7=Every Road
TTITLE8=Leave it All Behind
TTITLE9=Missing You
TTITLE10=The Feeling I Had
TTITLE11=Somewhere Down the Road
EXTD=
EXTT0=
EXTT1=
EXTT2=
EXTT3=
EXTT4=
EXTT5=
EXTT6=
EXTT7=
EXTT8=
EXTT9=
EXTT10=
EXTT11=
PLAYORDER=
